<?xml version="1.0" encoding="utf-8"?>
<!-- Generator: Adobe Illustrator 21.1.0, SVG Export Plug-In . SVG Version: 6.00 Build 0)  -->
<svg version="1.1" id="Слой_1" xmlns="http://www.w3.org/2000/svg" xmlns:xlink="http://www.w3.org/1999/xlink" x="0px" y="0px"
	 viewBox="0 0 20 20" style="enable-background:new 0 0 20 20;" xml:space="preserve">
<style type="text/css">
	.st0{fill:none;}
	.st1{opacity:0.8;}
	.st2{fill:#FFFFFF;}
</style>
<title>icon/dashboard/default</title>
<desc>Created with Sketch.</desc>
<g id="Page-1">
	<g id="icon_x2F_dashboard_x2F_default">
		<rect id="Rectangle-13" class="st0" width="20" height="20"/>
		<g id="Group" class="st1">
			<path id="Shape" class="st2" d="M19.5,20h-8c-0.3,0-0.5-0.2-0.5-0.5v-9c0-0.3,0.2-0.5,0.5-0.5h8c0.3,0,0.5,0.2,0.5,0.5v9
				C20,19.8,19.8,20,19.5,20z M12,19h7v-8h-7V19z"/>
			<path id="Shape_1_" class="st2" d="M19.5,8h-8C11.2,8,11,7.8,11,7.5v-7C11,0.2,11.2,0,11.5,0h8C19.8,0,20,0.2,20,0.5v7
				C20,7.8,19.8,8,19.5,8z M12,7h7V1h-7V7z"/>
			<path id="Shape_2_" class="st2" d="M8.5,10h-8C0.2,10,0,9.8,0,9.5v-9C0,0.2,0.2,0,0.5,0h8C8.8,0,9,0.2,9,0.5v9
				C9,9.8,8.8,10,8.5,10z M1,9h7V1H1V9z"/>
			<path id="Shape_3_" class="st2" d="M8.5,20h-8C0.2,20,0,19.8,0,19.5v-7C0,12.2,0.2,12,0.5,12h8C8.8,12,9,12.2,9,12.5v7
				C9,19.8,8.8,20,8.5,20z M1,19h7v-6H1V19z"/>
		</g>
	</g>
</g>
</svg>
